<svg xmlns="http://www.w3.org/2000/svg" xml:space="preserve" width="192" height="192" data-version="2">
    <rect width="161.033" height="174.02" x="-80.516" y="-87.01" fill="none" rx="0" ry="0" transform="translate(96.5 96.1)"/>
    <path fill="#2ea673" d="M21.72 129.02h-.98q-1.27 0-1.91-1.28-.64-1.28-.64-3.61v-.87q0-.49.15-1.91.22-5.42 5.34-6.32l1.73-.15q1.73-.23 2.7-1.09.98-.87 1.43-2.44 1.28-4.29 2.56-8.65t2.71-8.65q.75-2.41 1.54-5.15.79-2.75 1.73-5.45.94-2.71 2.18-5.34 1.24-2.63 2.82-4.81.67-.91 1.88-1.88 1.2-.98 2.74-1.77 1.54-.79 3.31-1.28t3.5-.49q2.25 0 4.43 1.43 2.94 2.03 5.79 4.89 2.86 2.86 6.4 7.29 3.53 4.44 8.19 10.72t11.21 15.15q.97 1.13 2.06 1.69 1.09.57 2.6.57h4.28q2.64 0 4.1 1.24 1.47 1.24 1.47 3.42 0 .45-.04 1.05-.04.6-.26 1.2l-1.43 4.21q-.15.61-.23 1.06-.07.45-.07.9 0 1.58 1.05 3.23l8.05 10.98q1.35 2.03 1.35 3.84 0 2.7-3.08 4.73l-2.86 2.03q-1.05.68-1.99 1.06-.94.37-1.92.37-1.35 0-2.52-.79t-2.22-2.14q-3.61-5.11-7.25-10.08-3.65-4.96-7.41-9.85-1.73-2.4-4.59-2.4-9.17.37-18.16 1.01-8.98.64-18.01 1.54-3.23.3-4.06 3.46l-3.38 12.41q-1.35 4.96-6.02 4.96h-1.2l-2.33-.3q-2.56-.22-3.87-1.58-1.32-1.35-1.32-3.53 0-.45.08-.98.07-.53.22-1.13.38-1.5.79-3.08.41-1.58.87-3.08.15-.6.22-1.09.08-.49.08-.94 0-2.33-1.81-2.33m34.82-39.71q-.75-.67-1.36-1.13-.6-.45-1.27-.45-1.88 0-2.64 2.64-1.5 4.43-2.89 8.76-1.39 4.32-2.82 8.83-.15.38-.15.68v.67q0 2.79 2.93 2.79h.75q4.51-.6 9.03-.94 4.51-.34 9.02-.57 1.5-.15 2.37-.79.86-.64.86-1.69 0-.98-.9-2.33-3.16-4.21-6.35-8.31-3.2-4.1-6.58-8.16" paint-order="stroke"/>
    <path fill="#2ea673" d="M165.21 72.84q0 2.93-1.92 5.48-1.92 2.56-4.81 4.97-2.9 2.4-6.28 4.66-3.39 2.26-6.28 4.59-2.9 2.33-4.81 4.73-1.92 2.41-1.92 5.12 0 2.25 3.16 4.36 3.15 2.1 9.1 4.21 5.94 2.1 14.36 4.32 8.42 2.22 18.95 4.7 5.26 1.43 5.26 5.34 0 1.51-.71 2.93-.72 1.43-1.92 2.52t-2.75 1.77q-1.54.68-3.12.68-3.76 0-8.53-1.13-4.78-1.13-9.89-2.78-5.11-1.66-10.23-3.65-5.11-1.99-9.58-3.65-4.48-1.65-7.9-2.78t-5.15-1.13q-1.35 0-2.59 1.24-1.24 1.24-2.26 3.42-1.02 2.19-1.69 5.16-.68 2.97-.98 6.5-.38 3.99-2.82 5.9-2.44 1.92-6.73 1.92-4.44 0-5.11-4.14-1.13-6.31-2.75-12.85-1.61-6.55-3.53-13.09-1.92-6.54-4.14-12.93-2.22-6.39-4.62-12.26-.6-1.28-.87-2.37-.26-1.09-.26-2.22 0-.97.6-1.84.6-.86 1.66-1.54 1.05-.68 2.44-1.05 1.39-.38 2.9-.38 3.08 0 4.88 1.28 1.81 1.28 3.69 3.84.9 1.2 1.73 3.19.82 1.99 1.58 4.25.75 2.26 1.5 4.55t1.47 4.14q.71 1.84 1.43 3 .71 1.17 1.39 1.17.6 0 1.01-.53.41-.52 1.02-1.58 3.91-8.12 8.57-14.85t9.55-11.5q4.89-4.78 9.81-7.41 4.93-2.63 9.44-2.63 1.8 0 3.38.64 1.58.64 2.75 1.76 1.16 1.13 1.84 2.67.68 1.55.68 3.28" paint-order="stroke"/>
</svg>
